<svg xmlns="http://www.w3.org/2000/svg" viewBox="0 0 512 512" fill="#1DB954">
  <path d="M400 224h-16c-26.5 0-48-21.5-48-48s21.5-48 48-48c2.1 0 4.2 .1 6.2 .4c14.1 1.9 27.2-7.8 29.1-21.9s-7.8-27.2-21.9-29.1C390.6 64.1 383.4 64 376 64c-61.9 0-112 50.1-112 112c0 8.8 7.2 16 16 16H400c26.5 0 48 21.5 48 48s-21.5 48-48 48H320c-8.8 0-16 7.2-16 16s7.2 16 16 16h80c61.9 0 112-50.1 112-112s-50.1-112-112-112zM224 352c0-35.3-28.7-64-64-64H64c-8.8 0-16 7.2-16 16s7.2 16 16 16h96c17.7 0 32 14.3 32 32s-14.3 32-32 32H128c-8.8 0-16 7.2-16 16s7.2 16 16 16h32c35.3 0 64-28.7 64-64zM320 320c0-44.2-35.8-80-80-80H32c-8.8 0-16 7.2-16 16s7.2 16 16 16H240c26.5 0 48 21.5 48 48s-21.5 48-48 48H160c-8.8 0-16 7.2-16 16s7.2 16 16 16H240c44.2 0 80-35.8 80-80z"/>
</svg>